<svg width="189" height="69" viewBox="0 0 189 69" fill="none" xmlns="http://www.w3.org/2000/svg">
<g clip-path="url(#clip0_1_11)">
<path d="M0 25.5271L8.43479 39.7029L11.8021 36.5055L2.62176 22.8757L0 25.5271Z" fill="url(#paint0_linear_1_11)"/>
<path d="M125.237 14.386L124.911 16.2546L128.945 14.9586L128.442 12.6696L125.237 14.386Z" fill="#0071B9"/>
<path d="M101.731 1.6242L88.7497 16.4445L92.5274 15.3629L104.886 0L101.731 1.6242Z" fill="url(#paint1_linear_1_11)"/>
<path d="M171.176 21.8876L174.362 20.1971L173.452 28.1407L171.176 21.8876Z" fill="#1D2C5E"/>
<path d="M151.372 26.9816L154.204 27.5591L157.819 25.812L154.682 24.6465L151.372 26.9816Z" fill="#1D2C5E"/>
<path d="M53.7243 18.5471L54.1773 27.7525L58.1303 26.1625L56.9471 16.8258L53.7243 18.5471Z" fill="url(#paint2_linear_1_11)"/>
<path d="M154.437 15.8L151.255 17.5094L151.372 26.9816L154.574 25.3476L155.579 20.7627L154.437 15.8Z" fill="url(#paint3_linear_1_11)"/>
<path d="M154 27.5856L150.496 58.5684L156.097 57.4686L157.194 25.9146L154 27.5856Z" fill="#312370"/>
<path d="M160.858 60.0536L160.957 64.2552L171.708 67.6663L174.908 65.9778L164.359 57.8415L153.674 56.9072L150.496 58.5684L160.858 60.0536Z" fill="#21386E"/>
<path d="M120.976 52.6637L123.618 51.2469L125.302 54.3445L127.792 52.9821L128.288 57.0657L143.917 59.8253L147.041 58.1152L125.489 45.0413L110.2 47.65L107.218 50.4718L120.976 52.6637Z" fill="#21386E"/>
<path d="M115.999 14.5438L112.87 16.2581L107.218 50.4718L110.384 48.8343L115.81 29.6239L115.999 14.5438Z" fill="url(#paint4_linear_1_11)"/>
<path d="M91.0313 19.1294L88.5386 20.4513L88.7483 21.2787L94.6806 17.5269L92.0883 14.7575L88.7497 16.4445L91.0313 19.1294Z" fill="#1D2C5E"/>
<path d="M97.8466 59.5439L72.3585 46.9741L75.5582 44.5657L101.018 57.8387L97.8466 59.5439Z" fill="#21386E"/>
<path d="M74.7537 12.7625L70.8912 20.0547L74.9725 18.8243L77.9176 11.0538L74.7537 12.7625Z" fill="#1D2C5E"/>
<path d="M39.7212 42.8878L36.4626 45.1146C36.4626 45.1146 37.1542 48.7345 38.0456 51.2525C38.942 53.7796 41.0756 55.8095 41.0756 55.8095C42.4461 57.1432 44.1259 58.1138 46 58.6584C49.6044 59.6912 53.6724 59.0181 57.1645 56.801C58.0777 56.2256 59.3171 55.3046 60.0788 54.5777C56.6462 56.6516 39.7212 42.8878 39.7212 42.8878Z" fill="url(#paint5_linear_1_11)"/>
<path d="M57.1596 27.0019L60.1335 59.6647L72.2842 57.875L75.5351 56.1788L60.4561 25.0439L57.3539 26.0843L54.1774 27.7525L57.1596 27.0019Z" fill="#1D2C5E"/>
<path d="M11.6078 38.3468L25.1837 69L38.0814 64.8578L41.2306 62.7504L14.4603 34.8645L11.1105 36.863L8.43478 39.7029L11.6078 38.3468Z" fill="url(#paint6_linear_1_11)"/>
<path d="M146.154 52.8089L146.337 54.3137C147.447 54.1894 148.615 54.0463 149.613 53.6923C150.778 53.2956 153.307 52.1742 154.268 51.3481C153.908 51.4787 147.982 53.008 146.154 52.8089Z" fill="#1D2C5E"/>
<path d="M100.523 44.9819L101.007 47.4049C103.618 47.0181 105.858 46.0566 108.062 44.7382C109.444 43.9184 110.962 42.6818 111.441 42.3522C111.103 42.5672 100.523 44.9819 100.523 44.9819Z" fill="#1D2C5E"/>
<path d="M28.7131 66.0938L27.7052 63.8642L14.8335 35.2632L14.5691 34.6767L13.9841 34.9455L13.5934 35.1243L11.302 36.2443C10.964 35.6801 10.4029 34.7346 10.0129 34.079L4.8318 25.3616L3.47674 23.0859L5.71835 21.6719C7.83862 20.3256 10.2331 19.082 12.838 17.9745C18.0248 15.7749 23.3188 14.6116 28.1464 14.6116C29.7343 14.6116 31.271 14.7393 32.7144 14.9893C35.1209 15.2624 37.3464 16.0486 39.1847 17.2678C41.9243 18.7929 44.081 21.1586 45.2993 23.9574C46.2995 26.2575 46.4944 28.9515 45.859 31.746L45.4859 33.3877L46.8557 32.3989C47.7787 31.732 48.7816 31.1622 49.8365 30.7049C51.6601 29.9374 53.5468 29.5457 55.437 29.5457C57.2263 29.5457 58.918 29.8983 60.4659 30.5917L61.464 31.0372L61.3637 29.9528L60.9295 25.2666L60.8594 24.5237L60.1328 24.7115L57.9522 25.2743L57.5699 17.2951L73.5431 12.2144L73.4141 18.4158L74.617 18.723L78.1056 12.067L88.5541 21.2927L88.9896 21.6789L89.4147 21.2808C90.8462 19.9415 92.5428 18.8669 94.4569 18.0869L95.2565 17.7615L94.7087 17.096L92.8248 14.8099L104.82 1.04395L111.103 10.3765L101.486 15.5228L99.3504 16.6666L101.775 16.7176C106.334 16.8132 110.371 18.7335 113.141 22.1237L114.142 23.3533L114.788 24.1431L113.716 25.2757L113.001 26.0313L110.598 28.5828L110.152 29.0569L110.635 29.4912L112.887 31.51L113.758 32.29L113.945 31.1392L114.809 25.8134L115.03 24.4462L115.037 24.4538L115.264 23.0573L116.554 15.1946H128.069H128.609L128.7 14.6646L128.925 13.3183H139.295L141.808 29.1142L141.971 30.1372L142.813 29.5289C143.83 28.793 144.955 28.1875 146.156 27.7302C147.754 27.1297 149.399 26.8231 151.042 26.8231C152.998 26.8231 154.896 27.2728 156.538 28.1226C156.582 28.154 156.643 28.1945 156.727 28.2281L157.507 28.5395L157.599 27.7071L157.787 25.9859L157.848 25.4217L157.291 25.2981L155.188 24.8302L155.086 16.5961L171.117 20.1091L172.321 26.034L173.566 26.0585L174.808 20.9596L188.177 24.1962L174.515 65.1874L164.739 62.131L164.67 58.3554L164.66 57.8142L164.121 57.7388L154.366 56.3681L154.918 51.4319L155.049 50.2574L153.993 50.7958C153.493 51.0493 153.009 51.2623 152.552 51.4299C150.957 52.0304 149.324 52.3341 147.697 52.3341C147.227 52.3341 146.754 52.3083 146.294 52.2566L145.46 52.1637L145.591 52.9877L146.278 57.3289L132.046 54.8298L131.3 48.3874L131.06 46.3226L130.102 48.1682L128.463 51.3139L125.447 45.7696L124.54 44.1042L124.254 45.9756L123.596 50.2672L111.123 48.3127L112.09 42.4227L112.311 41.0722L111.132 41.774C109.09 42.9925 106.746 43.9094 103.966 44.5776C102.995 44.8136 101.98 44.977 100.947 45.0622L100.362 45.1111V45.6956V56.8108L75.7974 44.7243L74.8744 44.2711L74.8751 45.2955L74.8919 55.6328L63.909 57.2437L63.4475 52.2797L63.3226 50.9515L62.3653 51.8858C60.9141 53.2999 59.2792 54.3962 57.5068 55.1447C55.6937 55.9121 53.8232 56.3004 51.9484 56.3004C50.0764 56.3004 48.3173 55.9107 46.7196 55.1489C43.7598 53.7314 41.6248 51.1596 40.7088 47.9147C40.2725 46.3904 40.154 44.7808 40.3567 43.1287L40.5734 41.369L39.2843 42.591C38.3753 43.4499 37.3961 44.2704 36.3721 45.0238L36.025 45.2787L36.1344 45.6942L39.8341 59.833L40.4878 62.3419L38.0106 63.1261L31.0445 65.3466L28.7131 66.0938ZM31.8398 28.138C31.4807 28.138 31.1097 28.1708 30.7358 28.2378L30.2617 28.3286L29.5617 28.4627L29.7729 29.1414L29.9103 29.5827L31.9022 36.0718L32.1014 36.6954L32.3974 37.6311L33.1339 36.9789L33.6227 36.5453C35.5536 34.8177 36.2305 33.0637 35.823 30.8515C35.5663 29.5241 34.5338 28.8628 33.9405 28.5863C33.3204 28.2888 32.6106 28.138 31.8398 28.138ZM85.2393 28.3509L83.9944 29.5576L80.7155 32.7299L80.0014 33.4205L80.9308 33.778L84.4475 35.1292L85.5276 35.5433L85.3046 34.4134C85.0142 32.954 84.9385 31.4932 85.0745 30.0722L85.2393 28.3509ZM99.5587 24.7429C98.1987 24.7429 96.8829 25.3253 95.948 26.3392C94.5298 27.881 94.2542 30.1553 95.2628 31.9974L95.53 32.4966L95.9599 33.2948L96.5652 32.6202L96.9545 32.1908L101.765 26.7233L102.143 26.2903L102.749 25.5962L101.884 25.2771L101.344 25.0788C100.778 24.8581 100.172 24.7429 99.5587 24.7429Z" fill="#FFCB05"/>
<path d="M106.917 32.8416C106.871 32.8821 106.828 32.9338 106.791 32.9868C106.84 32.9428 106.887 32.9044 106.937 32.8639L106.917 32.8416Z" fill="#7D7F68"/>
<path d="M111.064 29.0171L113.466 26.4656L112.644 27.3342L112.668 27.2246L111.942 27.9878L109.541 30.5317L111.79 32.5455L112.198 30.0373L113.317 31.0351L111.064 29.0171Z" fill="#7D7F68"/>
<path d="M111.064 29.0171L113.317 31.0351L114.18 25.71L113.466 26.4656L111.064 29.0171Z" fill="#7D7F68"/>
<path d="M81.1601 33.1837L81.1966 33.1991L81.1601 33.1837Z" fill="#7D7F68"/>
<path d="M94.4597 35.3987C94.6518 35.5921 94.4744 35.4532 94.6897 35.5998L96.1591 34.5684C95.941 34.4148 95.725 34.25 95.5265 34.0657C93.3943 32.1314 93.9484 27.7811 95.3315 25.4C91.6906 28.3244 91.88 32.8262 94.4597 35.3987Z" fill="#C7A008"/>
<path d="M112.198 37.8343C109.771 39.8328 107.005 41.1358 103.35 42.0149C102.551 42.1972 101.768 42.3298 101.002 42.3969C95.201 42.9646 90.3342 40.3125 88.4874 36.0111C88.2574 35.4902 88.0799 34.963 87.946 34.4001C87.0917 30.7775 87.8211 27.5402 89.6188 25.0027C89.7969 24.7569 89.9842 24.5216 90.1806 24.282C90.0887 24.3603 89.9947 24.4273 89.9182 24.5006C89.2274 25.113 88.6158 25.784 88.0961 26.5172C86.2963 29.0548 85.5669 32.2941 86.4289 35.9112C86.5607 36.474 86.7354 37.0089 86.9605 37.518C88.808 41.8292 93.6762 44.4798 99.4724 43.9163C100.245 43.8423 101.025 43.7152 101.824 43.5232C105.483 42.6441 108.247 41.3467 110.674 39.3482C111.267 38.8629 111.838 38.3336 112.393 37.7547L112.342 37.7058C112.287 37.7533 112.245 37.7945 112.198 37.8343Z" fill="#C7A008"/>
<path d="M71.3149 26.8831L77.7963 17.8153L77.5333 17.5737L71.2798 26.3189L71.3149 26.8831Z" fill="#C7A008"/>
<path d="M114.18 25.71L113.317 31.0351L112.198 30.0373L111.79 32.5455L109.541 30.5317L111.942 27.9878L112.668 27.2246L112.644 27.3342L113.466 26.4656L114.18 25.71Z" fill="#C7A008"/>
<path d="M106.171 10.7738L108.44 9.80456L104.292 4.50391L102.932 6.39416L106.171 10.7738Z" fill="#C7A008"/>
<path d="M43.3347 23.9057C32.8589 11.2004 13.9827 18.0296 7.19826 23.9727L7.46338 24.4287C9.02325 23.5377 10.668 22.7319 12.3983 22.0091C19.1371 19.1434 25.5618 18.3034 30.7127 19.2007C32.5335 19.4087 34.4623 19.9464 36.1407 21.0651C38.4643 22.3604 40.2255 24.2031 41.2551 26.5647C43.0822 30.7474 41.4726 36.3093 37.1696 40.9654C42.5667 36.0348 46.2595 31.3172 43.3347 23.9057Z" fill="#C7A008"/>
<path d="M64.7072 38.7078C64.6581 38.4774 64.609 38.2435 64.5339 38.0179C63.9441 35.9056 62.6767 34.2193 61.0151 33.0972C58.326 31.2788 54.5722 30.9053 50.8311 32.4778C48.863 33.3248 47.1516 34.6285 45.7987 36.1857C46.8388 35.2946 48.0277 34.5524 49.3119 33.9993C53.0446 32.4219 56.7984 32.7948 59.4966 34.611C61.1582 35.7346 62.4151 37.4202 63.0175 39.5297C63.0842 39.756 63.1361 39.9934 63.188 40.2315C63.3479 41.0345 63.4222 41.8466 63.3914 42.6783C63.3135 45.1097 62.408 47.5579 60.9022 49.6485C60.6595 49.9795 60.4042 50.2882 60.1398 50.594C60.9969 49.8573 61.7621 49.0424 62.4158 48.1298C63.9279 46.0524 64.8313 43.5993 64.9113 41.1532C64.9449 40.3369 64.8769 39.5116 64.7072 38.7078Z" fill="#C7A008"/>
<path d="M54.392 35.6068C54.3772 35.6298 55.9119 34.0929 55.8943 34.0929C53.9747 34.0203 53.1632 35.8225 53.0965 35.9643C53.4907 35.7744 53.9256 35.6508 54.392 35.6068Z" fill="#C7A008"/>
<path d="M58.0076 37.8099C58.0854 38.0689 58.1261 38.3266 58.1261 38.6087C58.1261 39.0067 58.037 39.3887 57.875 39.7406C58.1822 39.5807 60.4021 38.5088 59.5415 36.238C59.5878 36.3079 57.9522 37.8029 58.0076 37.8099Z" fill="#C7A008"/>
<path d="M49.2754 39.0737C49.2754 38.1394 50.8823 35.8728 51.3831 35.1166C48.8455 36.7226 47.7527 38.8901 47.7527 40.5974C47.7527 43.5225 50.3345 45.875 53.4213 45.875C54.8815 45.875 57.5559 45.1062 59.3051 42.2879C58.3884 42.8884 56.0585 44.3255 54.8359 44.3255C51.7499 44.3248 49.2754 42.0149 49.2754 39.0737Z" fill="#C7A008"/>
<path d="M70.9985 41.751L71.0385 53.5903L72.9259 53.6979L72.5528 40.2015L70.9985 41.751Z" fill="#C7A008"/>
<path d="M60.165 19.2104L60.2036 20.262L69.1483 17.6107L69.8111 28.9508L71.3036 26.8685L70.9852 15.4886L60.165 19.2104Z" fill="#C7A008"/>
<path d="M87.2039 23.2709L78.8021 15.594L77.7963 17.8153L85.191 24.7317L87.2039 23.2709Z" fill="#C7A008"/>
<path d="M85.9267 37.5773L76.0625 34.3303L74.6254 35.8414L84.4524 39.7567C85.5669 41.8473 87.2558 43.6384 89.3824 44.9477C91.4409 46.2011 93.7934 46.9518 96.2847 47.1899V52.022L97.8081 52.7789L98.2899 45.5196L85.9267 37.5773Z" fill="#C7A008"/>
<path d="M101.767 36.2115C104.189 35.6298 105.586 34.3715 106.789 32.9868C105.887 33.7242 101.361 34.706 100.601 34.9623L99.1105 36.5425C99.7916 36.6025 100.931 36.4196 101.767 36.2115Z" fill="#C7A008"/>
<path d="M97.3606 19.5121C92.8935 20.0945 90.5656 23.8282 90.1806 24.2828C91.8302 22.8953 93.8979 21.8653 96.2264 21.3165C101.754 19.9855 106.628 21.6635 109.64 25.3714L111.505 23.8002C108.521 20.1566 102.887 18.1854 97.3606 19.5121Z" fill="#C7A008"/>
<path d="M112.343 37.7058C112.881 37.2547 113.839 36.7987 114.348 36.2673L108.367 30.9464C107.909 31.4918 107.493 32.3905 106.934 32.8632L112.343 37.7058Z" fill="#C7A008"/>
<path d="M143.038 51.9647C136.763 46.8296 137.138 35.8183 140.218 32.3248L137.454 15.0668L131.406 15.844L131.137 17.3642H135.713L138.136 33.0224C135.053 36.5271 133.563 41.2224 134.593 45.521C135.391 48.8427 137.44 51.5311 140.39 53.0862C140.687 53.2482 140.993 53.3892 141.307 53.5226L141.346 53.7523L143.145 54.0351C143.145 54.0344 143.333 52.1141 143.038 51.9647Z" fill="#C7A008"/>
<path d="M118.919 17.6065L118.659 19.1273H125.556L127.588 30.2167L129.118 28.6777L127.509 16.971L118.919 17.6065Z" fill="#C7A008"/>
<path d="M130.727 39.1345L128.5 44.8618L129.051 46.3519L132.236 37.6297L130.727 39.1345Z" fill="#C7A008"/>
<path d="M124.113 35.5272L122.58 37.0515L120.937 47.3959L122.511 47.9943L124.113 35.5272Z" fill="#C7A008"/>
<path d="M155.091 32.2229C155.994 32.8646 156.764 33.6767 157.343 34.6425C157.801 35.3833 158.146 36.2129 158.367 37.1234C159.118 40.2329 158.22 43.5958 156.234 46.294C156.034 46.5677 155.814 46.8324 155.604 47.0921C156.41 46.4015 166.207 39.2071 156.636 29.758C146.108 26.3029 142.123 33.1411 141.75 33.5748C142.863 32.6335 144.146 31.8549 145.536 31.3256C149.099 29.9821 152.605 30.4479 155.091 32.2229Z" fill="#C7A008"/>
<path d="M149.784 32.9044C149.813 32.9708 151.295 31.3668 151.325 31.3668C149.452 31.4436 148.552 32.3437 148.645 32.7592C148.533 32.9205 148.441 33.0804 148.37 33.2571C148.77 33.0587 149.509 32.9065 149.784 32.9044Z" fill="#C7A008"/>
<path d="M153.306 35.2486C153.373 35.4985 153.406 35.7604 153.4 36.0418C153.383 36.4021 153.289 36.7324 153.152 37.0403C153.437 36.9126 155.707 36.2108 154.84 33.7235C154.862 33.794 153.282 35.25 153.306 35.2486Z" fill="#C7A008"/>
<path d="M148.333 43.1461C150.451 43.2362 152.795 41.9402 154.475 39.6498C150.163 40.5304 145.63 33.3813 146.085 32.6817C144.455 33.8576 143.013 36.1256 142.947 37.7107C142.835 40.6498 145.239 43.0232 148.333 43.1461Z" fill="#C7A008"/>
<path d="M171.963 61.7728L172.973 62.4459L185.309 25.5871L176.077 23.463L175.961 25.622L183.409 27.2672L171.963 61.7728Z" fill="#C7A008"/>
<path d="M157.313 19.5121L157.394 21.5706L167.21 23.5335L170.989 41.3767L172.518 39.8419L168.918 21.815L157.313 19.5121Z" fill="#C7A008"/>
<path d="M164.867 39.8453L162.165 55.0623L163.721 55.5644L166.404 38.3468L164.867 39.8453Z" fill="#C7A008"/>
<path d="M37.4852 60.6458L32.894 44.0734L31.2135 45.2438L35.4688 61.1206L37.4852 60.6458Z" fill="#C7A008"/>
<path d="M36.2936 35.7255C35.2345 36.8441 32.887 39.0179 31.5494 39.8754L30.7373 37.2792L28.9586 31.5868L27.8279 27.733L26.7247 29.1428L27.8511 33.0022L29.6298 38.6904L30.4385 41.2943C32.2698 40.1198 34.9336 37.9153 36.2936 35.7255Z" fill="#C7A008"/>
<path d="M101.348 25.9265C99.8989 25.3714 97.8466 25.5382 96.7385 26.7456C96.481 27.0256 95.9803 27.7399 95.8218 28.059C96.8942 27.2099 98.804 27.0263 100.056 27.476L101.348 25.9265Z" fill="#7D7F68"/>
<path d="M34.9687 31.0686C34.806 30.2167 33.9678 29.5401 33.5568 29.3523C32.8217 28.9989 31.5501 28.9438 30.6215 29.1121C30.7884 29.686 30.9799 30.3592 31.0613 30.635C31.4379 30.6874 32.0565 30.7991 32.3813 30.9464C32.7888 31.142 33.5014 31.6028 33.6669 32.4603C33.8885 33.6048 33.8303 34.6746 33.3513 35.5432C34.665 34.2598 35.3025 32.8639 34.9687 31.0686Z" fill="#7D7F68"/>
<path d="M37.2692 31.0449C36.6387 27.6764 32.2144 25.8197 27.8279 28.2015L28.9585 32.0567L30.7373 37.754L31.5487 40.3488C34.8396 38.2421 38.1473 35.7108 37.2692 31.0449ZM32.9122 36.2247C32.4332 34.6683 31.3825 31.3075 31.3825 31.3075C31.3874 31.3228 31.1756 30.5882 30.9245 29.7475C31.8545 29.582 32.7481 29.649 33.4831 30.001C33.8942 30.1958 34.6166 30.6504 34.7744 31.512C35.1377 33.4491 34.4819 34.8317 32.9122 36.2247Z" fill="#3C5AA6"/>
<path d="M103.644 25.7002C101.192 23.4609 97.3809 23.6347 95.1442 26.0738C92.8942 28.5087 93.0709 32.3053 95.5265 34.5356C95.7264 34.7276 95.9424 34.8847 96.1598 35.0391L104.069 26.1213C103.93 25.9761 103.789 25.8315 103.644 25.7002ZM96.1759 31.9729C95.4023 30.5589 95.5587 28.7636 96.7153 27.5053C97.8277 26.2987 99.5321 25.9551 100.985 26.513L96.1759 31.9729Z" fill="#3567B0"/>
<path d="M114.213 24.7213L109.833 28.9228L113.994 32.6433L114.213 24.7213Z" fill="#1E2D5F"/>
<path d="M154.828 33.7235C154.895 33.9882 154.929 34.25 154.921 34.5286C154.848 36.1947 153.275 37.481 151.399 37.3937C149.525 37.3294 148.053 35.9133 148.126 34.2514C148.19 32.6935 149.584 31.4604 151.306 31.3815C150.979 31.3082 150.637 31.2697 150.281 31.2572C147.144 31.1224 144.58 33.3346 144.472 36.0886C144.351 39.0339 146.722 41.4353 149.81 41.5687C152.951 41.6937 155.514 39.4739 155.639 36.5425C155.675 35.5265 155.374 34.5524 154.828 33.7235Z" fill="#3466AF"/>
<path d="M59.6544 37.0871C59.6544 38.7602 58.1261 40.1009 56.2541 40.1009C54.3772 40.1009 52.8545 38.7595 52.8545 37.0871C52.8545 35.5279 54.1942 34.2423 55.9112 34.0929C55.5822 34.0335 55.2399 33.9993 54.8864 33.9993C51.7499 33.9993 49.2754 36.3155 49.2754 39.0737C49.2754 42.017 51.7506 44.3255 54.8359 44.3255C57.9753 44.3255 60.4477 42.0156 60.4477 39.0737C60.4477 38.055 60.1096 37.0948 59.5282 36.3044C59.6067 36.5425 59.6544 36.8064 59.6544 37.0871Z" fill="url(#paint7_linear_1_11)"/>
<path d="M174.341 20.1887L172.948 25.9042L171.662 19.5756L154.437 15.8007L154.557 25.3365L157.153 25.916L156.966 27.6359C156.932 27.6226 156.911 27.6024 156.893 27.5877C153.675 25.8972 149.686 25.724 145.931 27.1359C144.671 27.6156 143.502 28.2462 142.442 29.0129L139.843 12.6815H128.387L128.072 14.5592H116.014L114.638 22.9546L113.637 21.7249C110.716 18.1511 106.48 16.1827 101.788 16.0849L112.025 10.6069L104.886 0.000701904L91.9887 14.7966L94.2149 17.4989C92.1984 18.3194 90.4366 19.4506 88.977 20.8172L77.9183 11.0489L74.0516 18.427L74.2003 11.3366L56.9106 16.8356L57.3539 26.0836L60.2955 25.3239L60.7303 30.0107C57.3693 28.508 53.3294 28.5451 49.5826 30.1211C48.4723 30.6029 47.4371 31.195 46.4832 31.8835C47.1313 29.0283 46.9777 26.2135 45.8849 23.7032C44.5944 20.7369 42.3233 18.2852 39.5389 16.7385C37.5869 15.4439 35.2604 14.6374 32.8259 14.363C26.8432 13.3218 19.659 14.3909 12.5884 17.39C9.98904 18.494 7.56437 19.7467 5.37747 21.1335L2.61333 22.8785L4.28262 25.6849L9.46301 34.4015C9.46301 34.4015 11.0481 37.0725 11.0586 37.0711L13.86 35.7003L14.2506 35.5216L27.123 64.1239L28.3645 66.873L31.2387 65.9513L38.2034 63.7301L41.2558 62.7643L40.4506 59.671L36.7516 45.5342C37.8156 44.7501 38.8087 43.9184 39.7254 43.0477C39.5185 44.7368 39.6272 46.4469 40.0943 48.0837C41.0616 51.5108 43.3158 54.2181 46.4439 55.718C49.8225 57.3345 53.9445 57.3387 57.7579 55.7285C59.6705 54.9206 61.3714 53.7419 62.8127 52.339L63.3381 57.9692L75.535 56.1809L75.5161 45.2926L101.002 57.8331V45.6907C102.025 45.6055 103.068 45.4449 104.118 45.1886C106.925 44.5134 109.327 43.5874 111.461 42.3145L110.391 48.8357L124.132 50.9885L124.886 46.0656L128.475 52.6665L130.669 48.458L131.471 55.3681L147.05 58.1026L146.224 52.8844C148.357 53.1246 150.605 52.8397 152.777 52.0241C153.291 51.8348 153.798 51.6044 154.285 51.3572L153.664 56.9093L164.033 58.3659L164.11 62.5996L174.923 65.9785L189 23.736L174.341 20.1887ZM113.466 26.4663L114.181 25.71L113.318 31.0358L111.066 29.0164L113.466 26.4663ZM104.336 4.71061L108.111 9.81575L97.3185 15.1422L96.5729 14.0145L104.336 4.71061ZM32.8729 44.0776L37.1787 60.5257L30.2098 62.742L15.9094 30.9464C15.1316 31.3535 13.6951 32.0365 12.3758 32.6803L7.19755 23.9713C9.2568 22.662 11.5152 21.5015 13.9175 20.4911C20.6591 17.6365 27.0915 16.7846 32.2361 17.6896C34.0562 17.8935 35.9829 18.4277 37.6704 19.5428C39.9856 20.8409 41.7566 22.6886 42.7778 25.0418C45.2684 30.7719 41.1078 39.0179 32.8729 44.0776ZM64.9127 41.1504C64.8327 43.5993 63.9293 46.0531 62.4171 48.1291C60.9786 50.1366 58.9692 51.7936 56.6048 52.8069C50.5589 55.357 44.513 52.8069 42.8978 47.0921C41.333 41.5666 44.9738 34.9888 50.8318 32.4764C54.5729 30.9039 58.3267 31.2767 61.0158 33.0958C62.6767 34.2172 63.9433 35.9035 64.5346 38.0165C64.609 38.2407 64.6581 38.476 64.7079 38.7065C64.8769 39.5116 64.9449 40.3369 64.9127 41.1504ZM97.808 52.7789L72.5198 40.1868L72.5647 53.3801L66.0229 54.2684L65.567 48.8301C67.587 45.382 68.3256 41.3187 67.2714 37.5927C66.6928 35.5446 65.6239 33.7668 64.1713 32.3423L63.2329 21.2543L60.2955 22.0126L60.1657 19.209L70.671 16.0947L71.3148 26.8817L79.0539 16.0563L86.6196 23.2297L76.0393 34.3268L85.9793 38.2414C87.0896 40.3362 88.7834 42.1162 90.9086 43.4275C92.9629 44.69 95.3167 45.4365 97.8066 45.6816L97.808 52.7789ZM84.6775 34.5356L81.1601 33.1844L84.4391 30.0114C84.2988 31.4681 84.371 32.991 84.6775 34.5356ZM112.198 37.8343C109.771 39.8328 107.005 41.1358 103.35 42.0149C102.551 42.1972 101.768 42.3298 101.002 42.3969C95.201 42.9646 90.3342 40.3125 88.4874 36.0111C88.2574 35.4902 88.0799 34.963 87.946 34.4001C87.0917 30.7775 87.8211 27.5395 89.6187 25.0027C90.1364 24.2625 90.7508 23.588 91.4409 22.9805C93.1341 21.4764 95.2957 20.3828 97.7533 19.7949C103.28 18.4682 108.146 20.1475 111.13 23.7926L100.6 34.9518C101.314 35.0859 102.449 34.8994 103.287 34.6997C105.795 34.0908 107.199 32.7655 108.435 31.3214L112.644 35.0907L113.919 36.2373C113.366 36.8064 112.785 37.3434 112.198 37.8343ZM134.539 52.7266L132.248 37.6192L129.008 45.9532L124.157 35.5369H124.103L122.186 47.5998L114.101 46.199L115.238 39.4676C115.543 39.182 115.843 38.8957 116.139 38.5933L118.759 35.907L116.212 33.6362L118.918 17.6058H127.075L129.117 28.7029L131.405 15.8426H137.24L139.661 31.5107C136.58 35.0049 135.083 39.7022 136.112 43.9994C136.909 47.3309 138.965 50.0137 141.913 51.5807C142.21 51.7294 142.517 51.8767 142.834 52.0038L143.142 54.0351L134.539 52.7266ZM154.686 47.8044C153.794 48.4363 152.813 48.9733 151.758 49.3608C149.676 50.1506 147.605 50.3147 145.759 49.9495C144.473 49.6967 143.3 49.1974 142.28 48.4747C140.657 47.3058 139.462 45.5796 138.935 43.4122C138.32 40.8083 138.886 38.0277 140.293 35.5921C140.995 34.4015 141.895 33.2829 142.959 32.3186C144.147 31.2586 145.524 30.3906 147.055 29.8041C150.621 28.4801 154.137 28.9368 156.612 30.7083C157.522 31.3507 158.277 32.1684 158.873 33.1188C159.325 33.8695 159.675 34.6969 159.888 35.6005C160.646 38.7274 159.743 42.0764 157.762 44.7745C156.913 45.9246 155.879 46.958 154.686 47.8044ZM172.89 62.0437L166.911 60.2708L166.39 38.3266L163.384 55.255L156.861 54.2188L157.329 49.3448C161.587 45.7619 163.845 40.11 162.608 34.9881C162.064 32.7201 160.893 30.7453 159.242 29.244L159.792 23.4958L157.326 22.8422L157.491 19.7732L168.728 22.0217L172.506 39.86L176.381 23.8673L184.93 25.7477L172.89 62.0437Z" fill="url(#paint8_linear_1_11)"/>
<path d="M177.803 64.1234V62.4668H177.181V62.2451H178.677V62.4668H178.053V64.1234H177.803Z" fill="black"/>
<path d="M178.926 64.1234V62.2451H179.302L179.749 63.5751C179.79 63.6989 179.82 63.7916 179.839 63.8531C179.86 63.7848 179.894 63.6844 179.939 63.552L180.391 62.2451H180.727V64.1234H180.486V62.5514L179.938 64.1234H179.713L179.167 62.5245V64.1234H178.926Z" fill="black"/>
</g>
<defs>
<linearGradient id="paint0_linear_1_11" x1="9.32835" y1="37.3748" x2="2.35059" y2="24.3131" gradientUnits="userSpaceOnUse">
<stop stop-color="#0070B6"/>
<stop offset="1" stop-color="#1D2C5E"/>
</linearGradient>
<linearGradient id="paint1_linear_1_11" x1="95.02" y1="10.7446" x2="103.896" y2="1.19202" gradientUnits="userSpaceOnUse">
<stop stop-color="#0070B6"/>
<stop offset="1" stop-color="#1D2C5E"/>
</linearGradient>
<linearGradient id="paint2_linear_1_11" x1="56.1118" y1="26.6046" x2="55.0576" y2="17.7085" gradientUnits="userSpaceOnUse">
<stop stop-color="#0070B6"/>
<stop offset="1" stop-color="#1D2C5E"/>
</linearGradient>
<linearGradient id="paint3_linear_1_11" x1="153.53" y1="24.8923" x2="153.109" y2="16.8633" gradientUnits="userSpaceOnUse">
<stop stop-color="#125D9E"/>
<stop offset="1" stop-color="#1D2C5E"/>
</linearGradient>
<linearGradient id="paint4_linear_1_11" x1="123.765" y1="13.3195" x2="114.466" y2="28.1797" gradientUnits="userSpaceOnUse">
<stop stop-color="#125D9E"/>
<stop offset="1" stop-color="#1D2C5E"/>
</linearGradient>
<linearGradient id="paint5_linear_1_11" x1="40.9397" y1="37.0952" x2="47.2761" y2="49.6122" gradientUnits="userSpaceOnUse">
<stop stop-color="#105FA1"/>
<stop offset="1" stop-color="#1D2C5E"/>
</linearGradient>
<linearGradient id="paint6_linear_1_11" x1="16.862" y1="32.8305" x2="24.1922" y2="49.8987" gradientUnits="userSpaceOnUse">
<stop stop-color="#105FA1"/>
<stop offset="1" stop-color="#1D2C5E"/>
</linearGradient>
<linearGradient id="paint7_linear_1_11" x1="49.2755" y1="39.1621" x2="60.4476" y2="39.1621" gradientUnits="userSpaceOnUse">
<stop stop-color="#3C5AA6"/>
<stop offset="0.9331" stop-color="#2B73B9"/>
<stop offset="1" stop-color="#2A75BB"/>
</linearGradient>
<linearGradient id="paint8_linear_1_11" x1="2.6138" y1="33.4367" x2="189.001" y2="33.4367" gradientUnits="userSpaceOnUse">
<stop stop-color="#3C5AA6"/>
<stop offset="0.9331" stop-color="#2B73B9"/>
<stop offset="1" stop-color="#2A75BB"/>
</linearGradient>
<clipPath id="clip0_1_11">
<rect width="189" height="69" fill="white"/>
</clipPath>
</defs>
</svg>
